HIERARCHY
ROOT Hips
{
  OFFSET 5.84602e-005 68.8428 3.50346
  CHANNELS 6 Xposition Yposition Zposition Zrotation Xrotation Yrotation
  JOINT Spine
  {
    OFFSET 0 8.597 -4.6522
    CHANNELS 3 Zrotation Xrotation Yrotation
    JOINT Spine1
    {
      OFFSET 0 7.8454 0.4098
      CHANNELS 3 Zrotation Xrotation Yrotation
      JOINT Spine2
      {
        OFFSET 0 9.7078 -2.1609
        CHANNELS 3 Zrotation Xrotation Yrotation
        JOINT Neck
        {
          OFFSET 0 21.8761 -0.4549
          CHANNELS 3 Zrotation Xrotation Yrotation
          JOINT Head
          {
            OFFSET 0 12.3537 3.3602
            CHANNELS 3 Zrotation Xrotation Yrotation
            End Site
            {
              OFFSET 0.0001 18.9506 0.5657
            }
          }
        }
        JOINT LeftShoulder
        {
          OFFSET 2.2086 21.1115 7.2329
          CHANNELS 3 Zrotation Xrotation Yrotation
          JOINT LeftArm
          {
            OFFSET 13.1193 3.0282 -4.8998
            CHANNELS 3 Zrotation Xrotation Yrotation
            JOINT LeftForeArm
            {
              OFFSET 27.4081 -0.0973053 -0.2375
              CHANNELS 3 Zrotation Xrotation Yrotation
              JOINT LeftHand
              {
                OFFSET 22.8641 0.0662994 -0.1369
                CHANNELS 3 Zrotation Xrotation Yrotation
                JOINT LeftHandIndex1
                {
                  OFFSET 8.8614 0.775009 2.4612
                  CHANNELS 3 Zrotation Xrotation Yrotation
                  JOINT LeftHandIndex2
                  {
                    OFFSET 3.3146 -0.808304 0.5841
                    CHANNELS 3 Zrotation Xrotation Yrotation
                    JOINT LeftHandIndex3
                    {
                      OFFSET 2.2628 -0.552002 0.3989
                      CHANNELS 3 Zrotation Xrotation Yrotation
                      End Site
                      {
                        OFFSET 1.6102 -0.4807 0.2612
                      }
                    }
                  }
                }
                JOINT LeftHandMiddle1
                {
                  OFFSET 8.9937 0.895004 0.2143
                  CHANNELS 3 Zrotation Xrotation Yrotation
                  JOINT LeftHandMiddle2
                  {
                    OFFSET 4.0984 0.0113983 -0.0242
                    CHANNELS 3 Zrotation Xrotation Yrotation
                    JOINT LeftHandMiddle3
                    {
                      OFFSET 2.2716 0.00689697 -0.0138001
                      CHANNELS 3 Zrotation Xrotation Yrotation
                      End Site
                      {
                        OFFSET 2.0404 -0.1441 0.0027
                      }
                    }
                  }
                }
                JOINT LeftHandRing1
                {
                  OFFSET 8.5234 0.597198 -2.0164
                  CHANNELS 3 Zrotation Xrotation Yrotation
                  JOINT LeftHandRing2
                  {
                    OFFSET 3.7188 -0.188293 -0.2328
                    CHANNELS 3 Zrotation Xrotation Yrotation
                    JOINT LeftHandRing3
                    {
                      OFFSET 2.1191 -0.106598 -0.1332
                      CHANNELS 3 Zrotation Xrotation Yrotation
                      End Site
                      {
                        OFFSET 1.8737 -0.2304 -0.0886
                      }
                    }
                  }
                }
                JOINT LeftHandPinky1
                {
                  OFFSET 7.9094 -0.601089 -3.4825
                  CHANNELS 3 Zrotation Xrotation Yrotation
                  JOINT LeftHandPinky2
                  {
                    OFFSET 2.2874 -0.477005 -0.6314
                    CHANNELS 3 Zrotation Xrotation Yrotation
                    JOINT LeftHandPinky3
                    {
                      OFFSET 1.6774 -0.349396 -0.4633
                      CHANNELS 3 Zrotation Xrotation Yrotation
                      End Site
                      {
                        OFFSET 1.4888 -0.4091 -0.3416
                      }
                    }
                  }
                }
                JOINT LeftHandThumb1
                {
                  OFFSET 1.833 -1.3875 1.3896
                  CHANNELS 3 Zrotation Xrotation Yrotation
                  JOINT LeftHandThumb2
                  {
                    OFFSET 3.4129 -1.121 2.5732
                    CHANNELS 3 Zrotation Xrotation Yrotation
                    JOINT LeftHandThumb3
                    {
                      OFFSET 2.2474 -0.804199 1.6192
                      CHANNELS 3 Zrotation Xrotation Yrotation
                      End Site
                      {
                        OFFSET 1.6527 -0.5689 1.1317
                      }
                    }
                  }
                }
              }
            }
          }
        }
        JOINT RightShoulder
        {
          OFFSET -2.2086 21.1115 7.2329
          CHANNELS 3 Zrotation Xrotation Yrotation
          JOINT RightArm
          {
            OFFSET -13.1216 3.0287 -4.9007
            CHANNELS 3 Zrotation Xrotation Yrotation
            JOINT RightForeArm
            {
              OFFSET -27.4081 -0.0973053 -0.2375
              CHANNELS 3 Zrotation Xrotation Yrotation
              JOINT RightHand
              {
                OFFSET -22.8641 0.0664063 -0.1369
                CHANNELS 3 Zrotation Xrotation Yrotation
                JOINT RightHandIndex1
                {
                  OFFSET -8.8614 0.774994 2.4612
                  CHANNELS 3 Zrotation Xrotation Yrotation
                  JOINT RightHandIndex2
                  {
                    OFFSET -3.3146 -0.808304 0.5841
                    CHANNELS 3 Zrotation Xrotation Yrotation
                    JOINT RightHandIndex3
                    {
                      OFFSET -2.2628 -0.552002 0.3989
                      CHANNELS 3 Zrotation Xrotation Yrotation
                      End Site
                      {
                        OFFSET -1.6102 -0.4807 0.2612
                      }
                    }
                  }
                }
                JOINT RightHandMiddle1
                {
                  OFFSET -8.9937 0.894989 0.2143
                  CHANNELS 3 Zrotation Xrotation Yrotation
                  JOINT RightHandMiddle2
                  {
                    OFFSET -4.0984 0.0113983 -0.0242
                    CHANNELS 3 Zrotation Xrotation Yrotation
                    JOINT RightHandMiddle3
                    {
                      OFFSET -2.2716 0.00691223 -0.0138001
                      CHANNELS 3 Zrotation Xrotation Yrotation
                      End Site
                      {
                        OFFSET -2.0404 -0.1441 0.0027
                      }
                    }
                  }
                }
                JOINT RightHandRing1
                {
                  OFFSET -8.5234 0.597198 -2.0164
                  CHANNELS 3 Zrotation Xrotation Yrotation
                  JOINT RightHandRing2
                  {
                    OFFSET -3.7188 -0.188309 -0.2328
                    CHANNELS 3 Zrotation Xrotation Yrotation
                    JOINT RightHandRing3
                    {
                      OFFSET -2.1191 -0.106598 -0.1332
                      CHANNELS 3 Zrotation Xrotation Yrotation
                      End Site
                      {
                        OFFSET -1.8737 -0.2304 -0.0886
                      }
                    }
                  }
                }
                JOINT RightHandPinky1
                {
                  OFFSET -7.9094 -0.601105 -3.4825
                  CHANNELS 3 Zrotation Xrotation Yrotation
                  JOINT RightHandPinky2
                  {
                    OFFSET -2.2874 -0.477005 -0.6314
                    CHANNELS 3 Zrotation Xrotation Yrotation
                    JOINT RightHandPinky3
                    {
                      OFFSET -1.6774 -0.349396 -0.4633
                      CHANNELS 3 Zrotation Xrotation Yrotation
                      End Site
                      {
                        OFFSET -1.4888 -0.4091 -0.3416
                      }
                    }
                  }
                }
                JOINT RightHandThumb1
                {
                  OFFSET -1.833 -1.38751 1.3896
                  CHANNELS 3 Zrotation Xrotation Yrotation
                  JOINT RightHandThumb2
                  {
                    OFFSET -3.41299 -1.12099 2.5732
                    CHANNELS 3 Zrotation Xrotation Yrotation
                    JOINT RightHandThumb3
                    {
                      OFFSET -2.24741 -0.804108 1.6192
                      CHANNELS 3 Zrotation Xrotation Yrotation
                      End Site
                      {
                        OFFSET -1.6527 -0.5689 1.1317
                      }
                    }
                  }
                }
              }
            }
          }
        }
      }
    }
  }
  JOINT RightUpLeg
  {
    OFFSET -9.1966 3.8861 -0.7581
    CHANNELS 3 Zrotation Xrotation Yrotation
    JOINT RightLeg
    {
      OFFSET -0.7359 -41.0265 0
      CHANNELS 3 Zrotation Xrotation Yrotation
      JOINT RightFoot
      {
        OFFSET 0 -40.2855 0
        CHANNELS 3 Zrotation Xrotation Yrotation
        JOINT RightToeBase
        {
          OFFSET 0 -5.6122 11.7359
          CHANNELS 3 Zrotation Xrotation Yrotation
          End Site
          {
            OFFSET 0 0 7.8731
          }
        }
      }
    }
  }
  JOINT LeftUpLeg
  {
    OFFSET 9.1965 3.8864 -0.7581
    CHANNELS 3 Zrotation Xrotation Yrotation
    JOINT LeftLeg
    {
      OFFSET 0.7359 -41.0268 0
      CHANNELS 3 Zrotation Xrotation Yrotation
      JOINT LeftFoot
      {
        OFFSET 0 -40.2855 0
        CHANNELS 3 Zrotation Xrotation Yrotation
        JOINT LeftToeBase
        {
          OFFSET 0 -5.6122 11.7359
          CHANNELS 3 Zrotation Xrotation Yrotation
          End Site
          {
            OFFSET 0 0 7.8731
          }
        }
      }
    }
  }
}
MOTION
Frames:	4
Frame Time:	0.0333333
-16.9289 66.1609 -55.5037 0.634677 9.82306 -57.381 0.641301 2.30119 3.3624 1.14771 4.63612 6.70703 1.14771 4.63612 6.70701 -2.80984 9.4147 6.50899 1.40976e-006 2.33093e-006 8.56134 -23.9699 -1.40298 3.98908 -25.1429 -6.24035 7.80853 -11.7648 21.4772 -48.1804 -6.99681 -0.000159128 0.00263079 1.66474e-008 2.99151e-006 -1.13125e-006 9.54166e-015 6.36111e-015 -0 8.47532e-007 1.94071e-006 -2.1016e-006 1.66474e-008 2.99151e-006 -1.13125e-006 -0.0145804 -8.5879e-005 -1.58469e-006 8.47742e-007 1.94098e-006 -2.10136e-006 1.66474e-008 2.99151e-006 -1.13125e-006 -0.0187505 -0.00116736 5.75393e-005 8.47784e-007 1.94107e-006 -2.1013e-006 1.66474e-008 2.99151e-006 -1.13125e-006 -0.0122994 -0.00325053 0.000677701 8.47662e-007 1.94097e-006 -2.10143e-006 1.66474e-008 2.99151e-006 -1.13125e-006 9.54166e-015 6.36111e-015 -0 8.47532e-007 1.94071e-006 -2.1016e-006 18.8117 -5.68821 17.8711 0.408533 -46.387 15.2422 3.29087 -8.89318 17.1943 -17.3128 -0.160991 -11.6956 1.21664e-006 1.93859e-007 6.8915e-007 1.62761e-006 2.05779e-007 -5.56412e-007 7.41791e-007 1.57597e-007 -3.81451e-007 1.21664e-006 1.93859e-007 6.8915e-007 0.0149482 -9.10703e-005 6.40424e-007 1.21464e-006 1.93961e-007 6.89124e-007 1.21664e-006 1.93859e-007 6.8915e-007 0.0190265 -0.00119449 -5.88714e-005 7.41803e-007 1.57534e-007 -3.81485e-007 1.21664e-006 1.93859e-007 6.8915e-007 0.0122843 -0.00324494 -0.000677671 7.41789e-007 1.57558e-007 -3.8149e-007 1.21664e-006 1.93859e-007 6.8915e-007 1.62761e-006 2.05779e-007 -5.56412e-007 7.41791e-007 1.57597e-007 -3.81451e-007 2.12582 -9.70682 -13.4046 -1.50465 16.6144 -0.961579 -12.1002 -3.82926 0.413933 1.96793e-006 4.59519e-007 2.49148e-006 19.9386 1.40683 5.21523 -11.0651 11.906 1.71202 -11.4977 -10.3588 36.5364 -2.11275e-007 -2.09921e-008 -2.17586e-008 
-16.1701 65.7921 -55.2477 0.595093 11.4696 -55.9259 0.70765 3.29729 4.28999 1.16874 6.63819 8.56035 1.16874 6.6382 8.56034 -2.45268 8.93957 4.98342 -1.09025e-006 8.07382e-006 8.42859 -23.8281 -1.39918 4.01849 -24.7963 -6.19276 8.13019 -14.9634 23.2537 -45.9371 -6.99678 -0.000168311 0.00265674 3.18055e-015 1.27222e-014 -7.95139e-016 -1.59028e-015 6.36111e-015 -0 4.77083e-015 3.18055e-015 -0 3.18055e-015 1.27222e-014 -7.95139e-016 -0.0146337 -8.8931e-005 4.98199e-006 1.59028e-015 6.36111e-015 -0 3.18055e-015 1.27222e-014 -7.95139e-016 -0.0187344 -0.00117574 6.63432e-005 -4.77083e-015 0 7.95139e-016 3.18055e-015 1.27222e-014 -7.95139e-016 -0.0122517 -0.0032423 0.000669948 1.59028e-015 6.36111e-015 7.95139e-016 3.18055e-015 1.27222e-014 -7.95139e-016 -1.59028e-015 6.36111e-015 -0 4.77083e-015 3.18055e-015 -0 18.5625 -5.85619 18.946 9.23867 -44.9187 22.4566 2.97864 -6.74487 14.8233 -15.2013 1.80365 -10.8039 1.59028e-015 3.18055e-015 -0 -1.93978e-007 -2.86368e-008 8.4204e-008 -1.93978e-007 -2.86368e-008 8.4204e-008 1.59028e-015 3.18055e-015 -0 0.0149339 -8.96878e-005 9.25568e-007 -1.93977e-007 -2.86258e-008 8.42079e-008 1.59028e-015 3.18055e-015 -0 0.0189861 -0.00119359 -5.94967e-005 -1.93976e-007 -2.8623e-008 8.42108e-008 1.59028e-015 3.18055e-015 -0 0.0121706 -0.0032242 -0.000670279 -1.93975e-007 -2.86291e-008 8.42125e-008 1.59028e-015 3.18055e-015 -0 -1.93978e-007 -2.86368e-008 8.4204e-008 -1.93978e-007 -2.86368e-008 8.4204e-008 3.48888 -12.0515 -13.2617 -2.69734 19.4194 -0.789859 -11.7395 -3.95719 -1.09446 9.62753e-007 -1.37576e-006 -1.5329e-007 21.6409 -1.09122 6.58436 -11.9397 14.2348 2.05185 -9.68316 -12.469 33.9251 7.07447e-008 -2.26644e-006 -1.90539e-006 
-15.4154 65.4275 -54.9934 0.51246 13.1128 -54.462 0.765488 4.29076 5.22502 1.13949 8.63329 10.4366 1.1395 8.63328 10.4366 -2.1087 8.455 3.46105 3.30736e-007 -1.16447e-006 8.29585 -23.6864 -1.39532 4.04782 -24.4501 -6.14325 8.45152 -18.2725 24.9063 -43.5627 -6.9967 -0.000168478 0.00271642 -1.19271e-015 -6.36111e-015 1.19271e-015 -7.95139e-016 -3.18055e-015 -0 -3.97569e-016 -3.18055e-015 -0 -1.19271e-015 -6.36111e-015 1.19271e-015 -0.0146229 -8.88477e-005 -1.79749e-006 1.59028e-015 -1.27222e-014 1.19271e-015 -1.19271e-015 -6.36111e-015 1.19271e-015 -0.0187579 -0.00117462 6.21376e-005 7.95139e-016 0 7.95139e-016 -1.19271e-015 -6.36111e-015 1.19271e-015 -0.0122593 -0.00324564 0.000674765 3.97569e-016 -6.36111e-015 1.59028e-015 -1.19271e-015 -6.36111e-015 1.19271e-015 -7.95139e-016 -3.18055e-015 -0 -3.97569e-016 -3.18055e-015 -0 18.3165 -6.02882 20.0203 18.0394 -43.7919 29.6368 3.29072 -4.649 12.6481 -13.1199 3.7968 -9.98489 -3.97569e-015 0 7.95139e-016 -1.56014e-006 3.14792e-006 8.58345e-007 2.91723e-007 1.28541e-007 7.89063e-007 -3.97569e-015 0 7.95139e-016 0.0149486 -8.51031e-005 5.60552e-007 2.91733e-007 1.28644e-007 7.89046e-007 -3.97569e-015 0 7.95139e-016 0.0190869 -0.00119498 -6.40037e-005 2.91743e-007 1.28672e-007 7.89039e-007 -3.97569e-015 0 7.95139e-016 0.0122392 -0.00323933 -0.000673263 2.91752e-007 1.28625e-007 7.89041e-007 -3.97569e-015 0 7.95139e-016 -1.56014e-006 3.14792e-006 8.58345e-007 2.91723e-007 1.28541e-007 7.89063e-007 4.89487 -14.3438 -13.0622 -3.9489 22.1179 -0.544052 -11.3621 -4.0444 -2.59621 -2.06113e-006 -1.44025e-006 -4.3049e-007 23.3698 -3.60519 8.03731 -12.766 16.6686 2.41911 -7.9907 -14.7158 31.3504 3.97569e-016 -3.18055e-015 -1.59028e-015 
-14.6647 65.0669 -54.7406 0.386135 14.7503 -52.988 0.814721 5.27957 6.16626 1.05916 10.616 12.3363 1.05916 10.616 12.3362 -1.77802 7.96106 1.94242 -1.66991e-006 8.27661e-006 8.1631 -23.5446 -1.39137 4.07718 -24.1042 -6.0918 8.77249 -21.6859 26.423 -41.0641 -6.99665 -0.000177983 0.0027535 5.44855e-007 1.0311e-006 -1.18226e-006 1.08971e-006 2.06221e-006 -2.36451e-006 5.44855e-007 1.0311e-006 -1.18226e-006 5.44855e-007 1.0311e-006 -1.18226e-006 -0.0146226 -8.55073e-005 -8.96026e-008 5.44904e-007 1.03125e-006 -1.18213e-006 5.44855e-007 1.0311e-006 -1.18226e-006 -0.0187609 -0.00117596 5.65424e-005 5.44908e-007 1.0313e-006 -1.18209e-006 5.44855e-007 1.0311e-006 -1.18226e-006 -0.0122883 -0.00325072 0.000679487 5.4487e-007 1.03124e-006 -1.18216e-006 5.44855e-007 1.0311e-006 -1.18226e-006 1.08971e-006 2.06221e-006 -2.36451e-006 5.44855e-007 1.0311e-006 -1.18226e-006 18.0738 -6.20589 21.0939 26.3997 -41.9051 36.3528 3.6824 -2.56197 10.4617 -11.0669 5.81253 -9.23874 -6.95494e-007 6.67048e-007 -5.76294e-008 -5.1684e-015 -3.18055e-015 7.95139e-016 6.3556e-007 -7.26385e-007 -1.38371e-007 -6.95494e-007 6.67048e-007 -5.76294e-008 0.0149832 -8.92401e-005 -1.89049e-006 5.56597e-015 3.18055e-015 -0 -6.95494e-007 6.67048e-007 -5.76294e-008 0.0189143 -0.0011819 -6.1531e-005 7.15625e-015 1.27222e-014 7.95139e-016 -6.95494e-007 6.67048e-007 -5.76294e-008 0.0123149 -0.0032603 -0.00067876 1.19271e-015 -3.18055e-015 2.38542e-015 -6.95494e-007 6.67048e-007 -5.76294e-008 -5.1684e-015 -3.18055e-015 7.95139e-016 6.3556e-007 -7.26385e-007 -1.38371e-007 6.38641 -16.5917 -12.7998 -5.35127 24.7101 -0.194644 -10.9282 -4.09318 -4.08991 -4.15004e-007 -2.32954e-006 -4.57439e-007 25.1525 -6.1082 9.57162 -13.5952 19.1679 2.82282 -6.4005 -17.0697 28.8187 -4.63756e-007 -6.31957e-008 8.27677e-007 
